<svg xmlns="http://www.w3.org/2000/svg" width="81" height="81" fill="none">
  <path d="M7 16.2759h47V13c0-2.7614-2.2386-5-5-5H11c-2.7614 0-5 2.2386-5 5v33.0345c0 2.7614 2.2386 5 5 5h38c2.7614 0 5-2.2385 5-4.9999V43.5" stroke="#f14d34" stroke-width="2.5"/>
  <path d="M26 51.5172v16.5173c0 2.7614 2.2386 5 5 5h38c2.7614 0 5-2.2386 5-5V38.2759m0 0V35c0-2.7614-2.2386-5-5-5h-7m12 8.2759H64" stroke="#f14d34" stroke-width="2.5"/>
  <path d="M10.4573 12.5517h2.0571m2.0569 0h2.0571m2.0574 0h2.0571M13 36h15m-15 4h8" stroke="#F14D34" stroke-width="2.5"/>
  <rect x="14.25" y="23.25" width="12.5" height="8.5" rx="3.75" stroke="#F14D34" stroke-width="2.5"/>
  <path d="M54 16.2759c-.9059 0-1.647.7875-1.647 1.75 0 .052.0102.095.0144.1436-5.7474.958-6.5813 7.0355-7.2622 12.0192-.7411 5.425-1.317 8.8372-5.1052 8.8372v1.75h9.9628c.373 2.0175 2.0145 3.5 4.0372 3.5 2.0227 0 3.6643-1.4825 4.0372-3.5H68v-1.75c-3.7882 0-4.3657-3.4122-5.1068-8.8372-.6809-4.9832-1.5147-11.0604-7.2606-12.0192.0043-.0486.0145-.0915.0145-.1436 0-.9625-.7412-1.75-1.6471-1.75zm0 3.5c5.847 0 6.505 5.1622 7.246 10.5872.43 3.1975.905 6.6456 2.6637 8.6628H44.0903c1.7587-2.0172 2.232-5.4653 2.662-8.6628.7412-5.425 1.4006-10.5872 7.2477-10.5872Zm-2.3274 21h4.6532c-.3286 1.0332-1.2187 1.75-2.3258 1.75-1.107 0-1.9988-.7168-2.3274-1.75z" fill="#050c33" stroke-width=".8489" stroke="#050c33"/>
  <path d="M60.235 51.8844c-.5092 0-.9412.3652-1.0255.8674l-.2037 1.1941a6.4987 6.4987 0 0 0-1.1414.4811l-.9657-.6953a1.0312 1.0312 0 0 0-.6041-.1932c-.2775 0-.5408.1089-.734.3055l-1.05 1.0466a1.0396 1.0396 0 0 0-.1125 1.338l.7024.987a6.5085 6.5085 0 0 0-.467 1.1484l-1.166.1967A1.0374 1.0374 0 0 0 52.6 59.586v1.4786c0 .5092.3652.9412.8674 1.0255l1.194.2037a6.499 6.499 0 0 0 .4813 1.1413l-.692.9623c-.295.4145-.2492.9799.1125 1.3381l1.0465 1.0466c.1967.1967.4566.3055.734.3055a1.02 1.02 0 0 0 .6006-.1932l.9869-.7024c.3547.1862.727.3372 1.1098.4566l.1966 1.18a1.0374 1.0374 0 0 0 1.0255.8675h1.482c.5093 0 .9413-.3652 1.0256-.8674l.2002-1.18a6.6639 6.6639 0 0 0 1.1449-.4742l.9728.6954c.1756.1264.3863.1931.604.1931.2775 0 .5373-.1088.734-.3055l1.0466-1.0466a1.0396 1.0396 0 0 0 .1124-1.338l-.6954-.9764c.1932-.3687.3547-.7515.4741-1.1449l1.18-.1966a1.0375 1.0375 0 0 0 .8675-1.0256V59.551c.007-.5092-.3582-.9412-.8604-1.0255l-1.18-.2002a6.6628 6.6628 0 0 0-.4742-1.1449l.6954-.9728c.295-.4144.2493-.9798-.1124-1.338l-1.0465-1.0466c-.1967-.1967-.4566-.3055-.734-.3055-.2178 0-.425.0667-.6006.1931l-.9763.6954a6.5936 6.5936 0 0 0-1.187-.4882l-.1968-1.166a1.0374 1.0374 0 0 0-1.0254-.8674zm.007.9447h1.4786a.091.091 0 0 1 .0913.0773l.2459 1.4644c.0316.1862.1685.3372.3512.3829a5.7 5.7 0 0 1 1.5066.618.4749.4749 0 0 0 .5163-.021l1.2116-.871c.0175-.0106.0351-.0176.0527-.0176a.094.094 0 0 1 .0667.0282l1.0465 1.0466c.0316.0316.0352.0807.0106.1193l-.8675 1.2187c-.1089.151-.1159.3547-.021.5162.2739.4601.4776.9553.611 1.4716a.4662.4662 0 0 0 .3793.3477l1.475.2493a.091.091 0 0 1 .0773.0913v1.4785h-.0035a.091.091 0 0 1-.0773.0914l-1.475.2459a.4714.4714 0 0 0-.3793.3476 5.6223 5.6223 0 0 1-.611 1.4715.4749.4749 0 0 0 .021.5163l.8675 1.2221a.0957.0957 0 0 1-.0106.1195l-1.0466 1.0466a.0889.0889 0 0 1-.0666.028.0859.0859 0 0 1-.0527-.0176l-1.2187-.8674c-.151-.1089-.3547-.116-.5162-.021a5.622 5.622 0 0 1-1.4716.611.4662.4662 0 0 0-.3477.3793l-.2493 1.475a.0909.0909 0 0 1-.0913.0772h-1.4785a.091.091 0 0 1-.0914-.0772l-.2458-1.475a.4715.4715 0 0 0-.3477-.3794c-.5022-.13-.9868-.33-1.4399-.59a.4865.4865 0 0 0-.2388-.0632c-.0948 0-.1932.0281-.274.0878l-1.2292.8745c-.0175.0106-.035.0175-.0526.0175a.093.093 0 0 1-.0667-.0281l-1.0466-1.0466c-.0316-.0316-.0352-.0808-.0106-.1194l.864-1.2116a.4809.4809 0 0 0 .0211-.5198c-.274-.4566-.4846-.9517-.6181-1.468-.0492-.1791-.1967-.316-.3793-.3477l-1.4856-.2528a.091.091 0 0 1-.0773-.0914V59.586a.091.091 0 0 1 .0773-.0913l1.4645-.2459c.1862-.0316.3372-.1685.3828-.3512.13-.5162.3302-1.015.6006-1.475a.469.469 0 0 0-.0246-.5127l-.8745-1.2292a.0957.0957 0 0 1 .0105-.1194l1.0466-1.0466a.0892.0892 0 0 1 .0667-.0281.086.086 0 0 1 .0527.0176l1.2116.8639a.4807.4807 0 0 0 .5198.021c.4565-.2739.9517-.4846 1.468-.618.1791-.0492.316-.1967.3477-.3794l.2528-1.4855a.091.091 0 0 1 .0913-.0773zm.7657 3.8316c-2.0019 0-3.628 1.626-3.628 3.6278 0 2.0019 1.6261 3.628 3.628 3.628 2.0018 0 3.6278-1.6261 3.6278-3.628 0-2.0018-1.626-3.6278-3.6278-3.6278zm0 .9482c1.4785 0 2.6796 1.201 2.6796 2.6796 0 1.4786-1.201 2.6797-2.6796 2.6797-1.4786 0-2.6797-1.2011-2.6797-2.6797 0-1.4785 1.2011-2.6796 2.6797-2.6796z" fill="#f14d34" stroke="#f14d34" stroke-width=".5868"/>
</svg>
