<svg xmlns="http://www.w3.org/2000/svg" width="81" height="81" fill="none">
  <path d="M3 59.82V64c0 2.7614 2.2386 5 5 5h39.3194M77 44.8889V41.82m-74 18V20c0-2.7614 2.2386-5 5-5h6M3 59.82h43.5m30.5-18V20c0-2.7614-2.2386-5-5-5H53.5M45 53H19c-2.7614 0-5-2.2386-5-5V12c0-2.7614 2.2386-5 5-5h29c2.7614 0 5 2.2386 5 5v33.5" stroke="#f14d34" stroke-width="2.5"/>
  <path d="M30.25 20v-5c0-.9665.7835-1.75 1.75-1.75h10c.9665 0 1.75.7835 1.75 1.75v5c0 .9665-.8077 1.9649-1.75 1.75H32c-.9665 0-1.75-.7835-1.75-1.75zM32 69v7h16v-7" stroke="#f14d34" stroke-width="2.5"/>
  <path d="M57 76H23" stroke="#F14D34" stroke-width="2.5"/>
  <path d="M18.5 14h7" stroke="#F14D34" stroke-width="3"/>
  <path d="M18.5 19h4" stroke="#050c33" stroke-width="3"/>
  <path d="M18.5 27h29.8m-29.8 5h26m-26 8h31m-31 5h20" stroke="#f14d34" stroke-width="3"/>
  <path d="M49.3215 44.2946c-2.5617 0-4.6613 2.0997-4.6613 4.6614v16.7564c0 2.5617 2.0996 4.6614 4.6613 4.6614h26.4573c2.5617 0 4.6615-2.0997 4.6615-4.6614V48.956c.0105-2.5722-2.0998-4.6614-4.6615-4.6614zm-.0525 2.9186h26.9718c.9239 0 1.6902.7559 1.6902 1.6903v.6406H47.5788v-.6406c0-.9239.7558-1.6903 1.6902-1.6903zm-1.6902 6.7718H77.931v11.7904c0 .9239-.7558 1.6902-1.6902 1.6902H49.269c-.9239 0-1.6902-.7558-1.6902-1.6902zm4.777 5.617c-1.6694 0-3.0236 1.3544-3.0236 3.0237 0 1.6693 1.3542 3.0235 3.0236 3.0235.9134 0 1.7429-.4094 2.2888-1.0603.5564.651 1.3752 1.0603 2.2886 1.0603 1.6694 0 3.0238-1.3542 3.0238-3.0235 0-1.6693-1.3544-3.0238-3.0238-3.0238-.9134 0-1.7427.4094-2.2886 1.0604-.5564-.651-1.3754-1.0604-2.2888-1.0604z" fill="#050c33" stroke="#050c33" stroke-width=".105"/>
</svg>
