<svg xmlns="http://www.w3.org/2000/svg" id="svg58" version="1.1" width="345" height="50">
  <defs id="defs4">
    <style id="style2">
      .cls-1{fill:#b0bdd2}.cls-2{fill:#8ea2c3}.cls-3{fill:#344e7b}.cls-4{fill:#fff}
    </style>
  </defs>
  <path class="cls-1" id="rect8" fill="#f4f464" fill-opacity="1" d="M7.059 8.2003h6.0562v6.0562H7.059z"/>
  <path class="cls-1" id="polygon20" transform="translate(7.059 1.4286) scale(.34235)" fill="#f4ac2b" fill-opacity="1" d="M88.44 19.78H70.76v53.07H53.07v17.69h35.37V37.47z"/>
  <g id="g4179">
    <path id="rect10" class="cls-2" fill="#f9e050" fill-opacity="1" d="M19.1713 2.1441h6.0562v6.0562h-6.0562z"/>
    <path id="rect12" class="cls-2" fill="#f9e050" fill-opacity="1" d="M25.2275 8.2003h6.0562v6.0562h-6.0562z"/>
    <path id="rect14" class="cls-2" fill="#f9e050" fill-opacity="1" d="M19.1713 14.2564h6.0562v6.0562h-6.0562z"/>
    <path id="rect16" class="cls-2" fill="#f9e050" fill-opacity="1" d="M25.2275 20.3126h6.0562v6.0562h-6.0562z"/>
    <path id="rect18" class="cls-2" fill="#f9e050" fill-opacity="1" d="M19.1713 26.3688h6.0562v6.0562h-6.0562z"/>
    <path id="rect22" class="cls-2" fill="#f9e050" fill-opacity="1" d="M25.2275 32.4249h6.0562v6.0562h-6.0562z"/>
  </g>
  <path id="polygon24" class="cls-3" transform="translate(7.059 1.4286) scale(.34235)" fill="#f14d34" fill-opacity="1" d="M141.51 72.85v17.69h17.69V19.78h-17.69v35.38z"/>
  <path id="polygon26" class="cls-3" transform="translate(7.059 1.4286) scale(.34235)" fill="#f14d34" fill-opacity="1" d="M70.76 108.23h70.75V90.54h-35.38V19.78h35.38V2.09H70.76v17.69h17.68v70.76H70.76z"/>
  <g id="g4157">
    <path class="cls-4" d="M77.946 16.7727a20.8217 20.8217 0 0 1 4.0123-2.8586 8.3157 8.3157 0 0 1 3.9096-1.0031 10.291 10.291 0 0 1 2.256.226 8.0213 8.0213 0 0 1 1.9583.7257l-.9551 5.416a8.2164 8.2164 0 0 0-1.8556-.8011 7.5967 7.5967 0 0 0-2.2047-.3013 5.7515 5.7515 0 0 0-1.5303.1986 8.6957 8.6957 0 0 0-1.503.5786 11.7152 11.7152 0 0 0-1.6055.962c-.5512.3834-1.1777.8113-1.8795 1.277v12.7764h7.4221v4.4506H66.3163v-4.4506h6.217V18.125H66.628v-4.5121h10.931z" id="path30" fill="#fff"/>
    <path class="cls-4" d="M98.6684 13.6128v15.933q0 2.6155.8764 3.5946a3.0366 3.0366 0 0 0 2.3964.9792 6.9257 6.9257 0 0 0 2.8073-.6402 14.0124 14.0124 0 0 0 3.0092-1.8658V13.6128h6.0151v24.817h-4.9264l-.4005-2.554a23.468 23.468 0 0 1-2.0062 1.253 16.3712 16.3712 0 0 1-2.0541.9517 14.1596 14.1596 0 0 1-2.1328.6265 11.099 11.099 0 0 1-2.28.226q-3.6085 0-5.4777-1.9309-1.8692-1.9308-1.8487-6.241V13.6128z" id="path32" fill="#fff"/>
    <path class="cls-4" d="M118.5863 13.6128h4.9161l.4006 2.5574a23.848 23.848 0 0 1 3.8343-2.1569 10.2705 10.2705 0 0 1 4.187-.8524 10.089 10.089 0 0 1 3.5604.5923 6.1623 6.1623 0 0 1 2.7387 2.054 10.671 10.671 0 0 1 1.7563 3.8618 24.341 24.341 0 0 1 .6265 6.015 19.401 19.401 0 0 1-.8525 6.1623 11.503 11.503 0 0 1-2.2834 4.1082 8.3636 8.3636 0 0 1-3.3345 2.28 11.7666 11.7666 0 0 1-4.1082.6848 11.3523 11.3523 0 0 1-2.9853-.3766 11.5166 11.5166 0 0 1-2.6327-1.0784l-.0479.0514q.096 1.4515.1746 2.708c.048.8353.0753 1.7117.0753 2.6052v6.2171h-6.0253zm6.0185 19.2537a12.4684 12.4684 0 0 0 2.2047 1.0031 7.1277 7.1277 0 0 0 2.2561.3424 6.135 6.135 0 0 0 2.0815-.3424 4.0363 4.0363 0 0 0 1.7562-1.2872 6.9565 6.9565 0 0 0 1.2256-2.5574 15.5187 15.5187 0 0 0 .452-4.1082 21.7015 21.7015 0 0 0-.3013-4.0123 6.5765 6.5765 0 0 0-.8764-2.3964 3.0811 3.0811 0 0 0-1.4037-1.1777 5.1352 5.1352 0 0 0-1.8795-.3424 5.8781 5.8781 0 0 0-2.5539.6128 22.061 22.061 0 0 0-2.9579 1.7803z" id="path34" fill="#fff"/>
    <path class="cls-4" d="M158.6652 21.3328q0-1.8008-1.1538-2.708-1.1537-.9072-3.8103-.9004a29.4797 29.4797 0 0 0-3.7659.25q-1.9582.2499-3.8617.6504l-.5511-4.4095a42.4993 42.4993 0 0 1 4.4505-.8045 37.5729 37.5729 0 0 1 4.7142-.3013 19.4694 19.4694 0 0 1 4.6628.4793 7.874 7.874 0 0 1 3.0811 1.4276 5.4023 5.4023 0 0 1 1.7118 2.4581 10.8285 10.8285 0 0 1 .5272 3.557v17.3982h-5.0018l-.3423-2.304a26.2616 26.2616 0 0 1-4.0295 1.9788 12.4547 12.4547 0 0 1-4.5395.8285q-3.4235 0-5.5906-1.8042-2.167-1.8042-2.1945-5.5153a9.0106 9.0106 0 0 1 .654-3.5125 5.909 5.909 0 0 1 2.1807-2.6052 11.4276 11.4276 0 0 1 4.0363-1.6057 29.3188 29.3188 0 0 1 6.1623-.5511h2.6566zm-2.506 5.9158a26.046 26.046 0 0 0-3.7659.226 7.1893 7.1893 0 0 0-2.3964.7291 2.8757 2.8757 0 0 0-1.253 1.229 3.9541 3.9541 0 0 0-.3424 1.7118q0 1.7563.9757 2.53c.6539.5204 1.5645.7771 2.7388.7771a8.367 8.367 0 0 0 3.1325-.5888 23.8002 23.8002 0 0 0 3.4235-1.7665v-4.8477z" id="path36" fill="#fff"/>
    <path class="cls-4" d="M184.2935 33.969v4.4505h-14.276V5.879h-7.8364V1.4286h13.8378v32.5403z" id="path38" fill="#fff"/>
    <path class="cls-4" d="M187.7991 22.5379h16.4328v5.1626h-16.4328z" id="path40" fill="#fff"/>
    <path class="cls-4" d="M231.2125 37.9299q-1.7563.4006-3.735.6847a25.998 25.998 0 0 1-3.9336.3013 24.2555 24.2555 0 0 1-5.642-.5752 8.3978 8.3978 0 0 1-3.9096-2.0335 9.0106 9.0106 0 0 1-2.3074-3.9097q-.7806-2.4546-.7772-6.217.003-3.7625.9517-6.3164a10.25 10.25 0 0 1 2.6327-4.0363 9.2914 9.2914 0 0 1 4.0877-2.1328 22.1295 22.1295 0 0 1 5.3646-.6026 28.682 28.682 0 0 1 3.8583.2534 31.4756 31.4756 0 0 1 3.6118.6847l-.5512 4.447a24.0021 24.0021 0 0 0-3.1086-.5785 29.3462 29.3462 0 0 0-3.3618-.1746 13.783 13.783 0 0 0-3.1325.3253 5.0565 5.0565 0 0 0-2.3554 1.253 5.748 5.748 0 0 0-1.479 2.5333 14.2075 14.2075 0 0 0-.5066 4.1596 16.5834 16.5834 0 0 0 .4313 4.1904 5.82 5.82 0 0 0 1.3284 2.5333 4.6765 4.6765 0 0 0 2.3074 1.3044 14.3034 14.3034 0 0 0 3.4235.3423 22.8827 22.8827 0 0 0 3.136-.226 30.7567 30.7567 0 0 0 3.2317-.6264z" id="path42" fill="#fff"/>
    <path class="cls-4" d="M257.724 25.845q0 3.8617-.801 6.419a9.9966 9.9966 0 0 1-2.3006 4.0842 8.2404 8.2404 0 0 1-3.6255 2.1534 16.9018 16.9018 0 0 1-4.793.63 18.4253 18.4253 0 0 1-4.851-.5786 7.6755 7.6755 0 0 1-3.5296-2.0302 9.4078 9.4078 0 0 1-2.1603-3.9404q-.7566-2.506-.7531-6.3677.003-3.8617.801-6.419a10.1507 10.1507 0 0 1 2.2767-4.0843 8.1068 8.1068 0 0 1 3.581-2.174 16.8265 16.8265 0 0 1 4.7929-.6264 18.4321 18.4321 0 0 1 4.851.5751 7.874 7.874 0 0 1 3.5536 2.0302 9.2777 9.2777 0 0 1 2.2082 3.961q.7497 2.5128.7497 6.3677zm-6.015.202a22.5643 22.5643 0 0 0-.3424-4.2623 6.7477 6.7477 0 0 0-1.0065-2.6053 3.4235 3.4235 0 0 0-1.7117-1.3043 7.4906 7.4906 0 0 0-2.3965-.3424 7.0319 7.0319 0 0 0-2.345.3424 3.646 3.646 0 0 0-1.6536 1.277 6.015 6.015 0 0 0-1.027 2.5812 24.5088 24.5088 0 0 0-.3014 4.2623 24.9368 24.9368 0 0 0 .3013 4.2896 6.2205 6.2205 0 0 0 1.027 2.6395 3.5741 3.5741 0 0 0 1.6844 1.3044 8.2164 8.2164 0 0 0 4.7621 0 3.4851 3.4851 0 0 0 1.6878-1.277 6.5697 6.5697 0 0 0 1.0065-2.6087 22.9682 22.9682 0 0 0 .315-4.2965z" id="path44" fill="#fff"/>
    <path class="cls-4" d="M278.7649 35.8758a25.4263 25.4263 0 0 1-3.8344 2.1808 10.6128 10.6128 0 0 1-7.7473.2739 6.1623 6.1623 0 0 1-2.7388-2.0541 10.5855 10.5855 0 0 1-1.7563-3.8618 24.341 24.341 0 0 1-.6265-6.015 19.3393 19.3393 0 0 1 .8525-6.1623 11.5338 11.5338 0 0 1 2.2766-4.0877 8.3396 8.3396 0 0 1 3.3345-2.28 11.7529 11.7529 0 0 1 4.1082-.6847 11.9822 11.9822 0 0 1 2.9853.3423 10.9038 10.9038 0 0 1 2.6326 1.051l.048-.0479q-.0994-1.407-.1747-2.684a46.8543 46.8543 0 0 1-.0753-2.6327v-7.785h6.0185v37.0011h-4.9024zm-.6847-16.6964a12.4684 12.4684 0 0 0-2.2048-1.003 7.0319 7.0319 0 0 0-2.256-.3424 6.0562 6.0562 0 0 0-2.0815.3423 4.074 4.074 0 0 0-1.7563 1.3078 7.0216 7.0216 0 0 0-1.2256 2.5642 15.861 15.861 0 0 0-.452 4.1732 21.3387 21.3387 0 0 0 .3014 3.9987 6.847 6.847 0 0 0 .8764 2.417 2.8757 2.8757 0 0 0 1.3694 1.181 5.2208 5.2208 0 0 0 1.8555.3013 6.1041 6.1041 0 0 0 2.6121-.6128 20.0035 20.0035 0 0 0 2.958-1.7939z" id="path46" fill="#fff"/>
    <path class="cls-4" d="M309.8126 37.7793a32.109 32.109 0 0 1-4.2246.8524 36.4431 36.4431 0 0 1-4.8888.3013 22.595 22.595 0 0 1-5.0394-.5033 7.9562 7.9562 0 0 1-3.711-1.8795 8.7436 8.7436 0 0 1-2.3075-3.8582q-.801-2.4855-.801-6.5047 0-3.8617.8524-6.419a10.0754 10.0754 0 0 1 2.3964-4.0843 8.6032 8.6032 0 0 1 3.735-2.1568 18.86 18.86 0 0 1 9.2435-.0993 7.0524 7.0524 0 0 1 3.1838 1.8042 7.874 7.874 0 0 1 1.907 3.4851 20.7464 20.7464 0 0 1 .6264 5.5632c0 .5717 0 1.1298-.0274 1.681-.0274.5511-.0582 1.1297-.1232 1.7117H294.869a12.4033 12.4033 0 0 0 .4793 3.4612 4.2896 4.2896 0 0 0 1.253 2.0061 4.543 4.543 0 0 0 2.1397.9792 16.3506 16.3506 0 0 0 3.0606.2499 25.7824 25.7824 0 0 0 3.8856-.274q1.7768-.2772 3.6324-.7291zm-4.3616-13.9884a12.7286 12.7286 0 0 0-.3423-3.16 4.2725 4.2725 0 0 0-.9757-1.9308 3.605 3.605 0 0 0-1.5783-.9517 7.607 7.607 0 0 0-2.1328-.2739 7.9117 7.9117 0 0 0-2.256.2979 4.2109 4.2109 0 0 0-1.729 1.003 4.6149 4.6149 0 0 0-1.1297 1.9309 11.1195 11.1195 0 0 0-.4519 3.0811z" id="path48" fill="#fff"/>
    <path class="cls-4" d="M326.7418 16.7727a20.8217 20.8217 0 0 1 4.0123-2.8586 8.3157 8.3157 0 0 1 3.9096-1.0031 10.291 10.291 0 0 1 2.2561.226 7.9973 7.9973 0 0 1 1.9548.7257l-.9517 5.416a8.278 8.278 0 0 0-1.8658-.8011 7.5967 7.5967 0 0 0-2.2047-.3013 5.7515 5.7515 0 0 0-1.5303.1986 8.6957 8.6957 0 0 0-1.503.5786 11.7152 11.7152 0 0 0-1.609.962c-.5512.3834-1.1777.8113-1.8795 1.277v12.7764h7.4187v4.4506h-19.6406v-4.4506h6.2274V18.125H315.41v-4.5121h10.9312z" id="path50" fill="#fff"/>
  </g>
  <path id="path3037" word-spacing="0" letter-spacing="0" font-weight="700" style="line-height:125%;-inkscape-font-specification:'CamingoCode Bold'" d="M293.892-234.609q9.4897-8.3743 18.0587-12.889 8.6045-4.5147 17.6339-4.5147 5.6654 0 10.1624 1.1331 4.5324.8853 8.817 3.1869l-4.2846 24.3793q-3.8419-2.2662-8.3566-3.6295-4.5323-1.381-9.95-1.381-3.6117 0-6.9933.8853-3.1868.9206-6.781 2.7265-3.3992 1.5934-7.2234 4.2845-3.6295 2.4787-8.3743 5.6301v57.6287h33.4618v20.1124h-88.5764v-20.077h28.0088v-71.3852h-26.6455v-20.325h49.2189zm101.6247-14.2345v71.5976q0 11.7559 3.8242 16.2882 4.072 4.2492 10.853 4.2492 6.055 0 12.6057-2.6911 6.5507-2.939 13.5618-8.3566v-81.0873h27.0881v111.8226h-22.1308l-1.8236-11.508q-4.5147 3.1336-9.0294 5.63-4.5147 2.4787-9.2595 4.2845-4.7449 1.8059-9.7376 2.7089-4.7271 1.1685-10.1448 1.1685-16.2883 0-24.6094-8.5868-8.3743-8.7815-8.3743-28.2212v-77.2985zm97.9776 0h22.1308l1.806 11.508q8.5866-5.8425 17.1734-9.7022 8.817-3.8419 18.9794-3.8419 8.7992 0 16.0404 2.7088 7.2235 2.7089 12.2162 9.2596 5.1698 6.5507 7.8786 17.4036 2.9036 10.8353 2.9036 27.0882 0 16.2883-3.842 27.7963-3.8418 11.2955-10.3926 18.519-6.3029 7.011-14.8719 10.1625-8.6044 3.1869-18.5368 3.1869-7.2235 0-13.5617-1.8236-6.0904-1.5934-11.7382-4.7448l-.23.23q.4957 6.5506.7081 12.2161.4605 5.6301.4605 11.7205V-89.13H493.53zm27.0881 86.7527q5.2052 2.9213 9.95 4.497 4.745 1.5935 10.1802 1.5935 4.9573 0 9.295-1.5935 4.5147-1.5934 7.8962-5.8425 3.6295-4.32 5.6655-11.5434 2.036-7.2235 2.036-18.519 0-11.0655-1.3455-18.0589-1.381-7.0287-4.072-10.8529-2.4787-3.8419-6.3383-5.2052-3.6118-1.5403-8.3212-1.5403-5.6655 0-11.5434 2.939-5.878 2.6911-13.3316 7.8786zm163.768-51.9631q0-8.1441-5.2228-12.2162-5.2229-4.072-17.1735-4.072-8.1441 0-16.961 1.1507-8.817 1.1331-17.4038 2.939l-2.4786-19.8823q9.472-2.2662 20.077-3.6118 10.6229-1.3278 21.2457-1.3278 12.3932 0 20.9977 2.2662 8.6044 2.036 13.8096 6.3205 5.4176 4.2491 7.6661 11.0477 2.4787 6.781 2.4787 16.0405v78.3785h-22.5026l-1.5934-10.375q-8.569 5.223-18.289 9.0294-9.4897 3.6472-20.325 3.6472-15.403 0-25.3175-8.1442-9.7376-8.1441-9.7376-24.8396 0-8.7992 2.939-15.8103 2.939-7.011 9.7375-11.7558 6.9756-4.745 18.2712-7.259 11.2956-2.4786 27.7963-2.4786h11.9684zm-11.3309 26.6455q-10.1625 0-16.9257 1.133-6.7808.8853-10.8529 3.187-4.072 2.2307-5.6655 5.63-1.558 3.1514-1.558 7.6661 0 7.914 4.2845 11.508 4.497 3.417 12.3933 3.417 7.436 0 13.9867-2.4786 6.7985-2.7265 15.58-7.914v-22.1308zm147.3027 30.275v20.1125h-64.3918v-146.5946h-35.2323v-20.1479h62.3204v146.63zm25.8134-51.5206h74.094v23.2816h-74.094zm197.6371 69.3669q-7.914 1.8058-16.9434 3.1868-8.8169 1.3278-17.6338 1.3278-14.695 0-25.4947-2.4786-10.6228-2.7088-17.6515-9.2595-6.7632-6.5508-10.3927-17.6339-3.3639-11.0654-3.3639-28.0088 0-17.1735 4.2845-28.4513 4.2846-11.2956 11.7383-18.0588 7.6838-7.0287 18.519-9.7375 10.7999-2.7088 24.1315-2.7088 9.0293 0 17.4037 1.133 8.3565 1.1332 16.2882 3.1869l-2.514 19.8292q-7.2235-1.7704-13.9867-2.4786-6.7986-.8853-15.1552-.8853-7.9139 0-14.2522 1.5935-6.0904 1.3455-10.6228 5.63-4.2845 4.0721-6.5507 11.2956-2.2485 7.259-2.2485 18.767 0 11.7381 1.8058 18.944 2.036 7.0287 6.1082 11.3309 4.072 4.2491 10.3926 5.8425t15.3499 1.5934q6.7632 0 13.9867-.8852 7.436-1.1508 14.6948-2.9567zm130.5187-54.4418q0 17.386-3.6294 28.9117-3.6118 11.508-10.375 18.519-6.7809 6.781-16.5007 9.4897-9.4897 2.939-21.4581 2.939-12.4286 0-21.9183-2.7088-9.4897-2.4787-16.0404-9.0294-6.3206-6.5507-9.7022-17.8463-3.3992-11.2956-3.3992-28.6815 0-17.4037 3.6294-28.9294 3.6117-11.508 10.1624-18.2358 6.7632-7.0288 16.2529-9.7376 9.4897-2.939 21.6882-2.939 12.4287 0 21.9184 2.7089 9.4897 2.4786 16.0404 9.0293 6.5508 6.5507 9.9146 17.8817 3.417 11.2779 3.417 28.6815zm-27.336.8852q0-11.7205-1.5934-19.1919-1.3455-7.436-4.5147-11.685-2.939-4.3023-7.6838-5.8957-4.5147-1.5934-10.6228-1.5934-6.0904 0-10.6228 1.5934-4.2491 1.5934-7.4359 5.878-3.1869 4.072-4.5147 11.508-1.4164 7.436-1.4164 19.1918 0 11.756 1.3809 19.4397 1.3279 7.4714 4.497 11.756 3.1869 4.2844 7.436 5.8779 4.5324 1.5934 10.853 1.5934 6.1081 0 10.6228-1.5934 4.5146-1.5935 7.4359-5.6655 3.1868-4.2845 4.5324-11.7382 1.5934-7.6838 1.5934-19.422zm123.5254 44.297q-8.6044 5.878-17.4037 9.9146-8.5867 3.8597-18.7669 3.8597-8.7992 0-16.0227-2.7089-7.2235-2.7088-12.4287-9.2595-4.9573-6.5507-7.914-17.439-2.7088-10.8353-2.7088-27.0882 0-16.5008 3.8419-27.7963 3.8419-11.2956 10.1448-18.3066 6.5507-7.2058 15.1729-10.3572 8.5867-3.1869 18.5368-3.1869 7.2234 0 13.3139 1.5934 6.3382 1.5935 11.986 4.7449l.2127-.23q-.4427-6.3029-.8852-11.9507-.2301-5.878-.2301-11.9683v-35.0375h27.1236v166.7247h-22.1308zm-3.1868-75.2448q-5.1875-2.9212-9.9146-4.497-4.7803-1.5933-10.1802-1.5933-4.9573 0-9.4897 1.5934-4.32 1.5934-7.9317 5.878-3.3993 4.2844-5.4353 11.508-2.0361 7.2588-2.0361 18.7669 0 11.0477 1.381 18.0587 1.3633 6.7809 3.8419 10.8353 2.7088 3.8419 6.3206 5.2051 3.6117 1.381 8.3566 1.381 5.8779 0 11.7559-2.7088 5.8779-2.7088 13.3316-7.8963zm149.2856 83.8316q-9.0294 2.4786-19.2095 3.842-9.9146 1.31-21.9184 1.31-12.6765 0-22.6265-2.2485-9.9146-2.2662-16.7132-8.3742-6.7809-6.3206-10.4104-17.386-3.6117-11.2956-3.6117-29.3898 0-17.3505 3.8419-28.894 3.8419-11.508 10.8529-18.2712 6.9934-7.011 16.7132-9.7375 9.9147-2.9213 21.4581-2.9213 11.7382 0 20.3249 2.4787 8.5868 2.2662 14.2346 8.1441 5.8779 5.6655 8.5867 15.5801 2.939 9.95 2.939 25.0698 0 3.8065-.23 7.6484 0 3.6118-.4605 7.6838h-71.1727q.2479 9.7376 2.0538 15.5801 2.036 5.878 5.6655 9.0294 3.8242 3.1868 9.7021 4.3022 5.8957 1.1154 13.8097 1.1154 9.4719 0 17.3859-1.133 8.1442-1.3633 16.4654-3.364zm-19.6522-63.0286q0-8.5867-1.5934-14.2345-1.3455-5.6655-4.2845-8.5868-2.939-3.1514-7.2235-4.2845-4.072-1.3279-9.4897-1.3279-5.6655 0-10.1801 1.3633-4.4793 1.3633-7.8609 4.5324-3.1869 3.1868-4.9573 8.8169-1.8236 5.4176-2.0538 13.7742zm101.1466-31.6205q9.4896-8.3743 18.0587-12.889 8.5869-4.5147 17.6338-4.5147 5.6658 0 10.1979 1.1331 4.5148.8853 8.8169 3.1869l-4.3021 24.3793q-3.8243-2.2662-8.3213-3.6295-4.5322-1.381-9.9145-1.381-3.6472 0-7.0462.8853-3.1516.9206-6.7633 2.7265-3.3638 1.5934-7.2237 4.2845-3.6117 2.4787-8.3565 5.6301v57.6287h33.4262v20.1124h-88.523v-20.077h27.9734v-71.3852h-26.6455v-20.325h49.2719z" font-family="CamingoCode" fill="#fff" stroke-width="17.7047"/>
</svg>
